<?xml version="1.0" encoding="UTF-8"?>
<svg version="1.1" xmlns="http://www.w3.org/2000/svg" width="256" height="256">
<path d="M0 0 C26.4 0 52.8 0 80 0 C80 5.28 80 10.56 80 16 C90.56 16 101.12 16 112 16 C112 21.28 112 26.56 112 32 C117.28 32 122.56 32 128 32 C128 37.28 128 42.56 128 48 C133.28 48 138.56 48 144 48 C144 42.72 144 37.44 144 32 C149.28 32 154.56 32 160 32 C160 37.28 160 42.56 160 48 C165.28 48 170.56 48 176 48 C176 63.84 176 79.68 176 96 C181.28 96 186.56 96 192 96 C192 122.4 192 148.8 192 176 C186.72 176 181.44 176 176 176 C176 186.56 176 197.12 176 208 C170.72 208 165.44 208 160 208 C160 213.28 160 218.56 160 224 C154.72 224 149.44 224 144 224 C144 229.28 144 234.56 144 240 C138.72 240 133.44 240 128 240 C128 245.28 128 250.56 128 256 C85.76 256 43.52 256 0 256 C0 250.72 0 245.44 0 240 C-10.56 240 -21.12 240 -32 240 C-32 245.28 -32 250.56 -32 256 C-37.28 256 -42.56 256 -48 256 C-48 250.72 -48 245.44 -48 240 C-53.28 240 -58.56 240 -64 240 C-64 224.16 -64 208.32 -64 192 C-58.72 192 -53.44 192 -48 192 C-48 181.44 -48 170.88 -48 160 C-53.28 160 -58.56 160 -64 160 C-64 149.44 -64 138.88 -64 128 C-58.72 128 -53.44 128 -48 128 C-48 122.72 -48 117.44 -48 112 C-42.72 112 -37.44 112 -32 112 C-32 101.44 -32 90.88 -32 80 C-37.28 80 -42.56 80 -48 80 C-48 74.72 -48 69.44 -48 64 C-53.28 64 -58.56 64 -64 64 C-64 58.72 -64 53.44 -64 48 C-58.72 48 -53.44 48 -48 48 C-48 42.72 -48 37.44 -48 32 C-42.72 32 -37.44 32 -32 32 C-32 26.72 -32 21.44 -32 16 C-21.44 16 -10.88 16 0 16 C0 10.72 0 5.44 0 0 Z " fill="#2020A0" transform="translate(64,0)"/>
<path d="M0 0 C26.4 0 52.8 0 80 0 C80 5.28 80 10.56 80 16 C90.56 16 101.12 16 112 16 C112 21.28 112 26.56 112 32 C117.28 32 122.56 32 128 32 C128 37.28 128 42.56 128 48 C133.28 48 138.56 48 144 48 C144 42.72 144 37.44 144 32 C149.28 32 154.56 32 160 32 C160 37.28 160 42.56 160 48 C165.28 48 170.56 48 176 48 C176 79.68 176 111.36 176 144 C170.72 144 165.44 144 160 144 C160 128.16 160 112.32 160 96 C154.72 96 149.44 96 144 96 C144 127.68 144 159.36 144 192 C133.44 192 122.88 192 112 192 C112 170.88 112 149.76 112 128 C106.72 128 101.44 128 96 128 C96 117.44 96 106.88 96 96 C85.44 96 74.88 96 64 96 C64 101.28 64 106.56 64 112 C58.72 112 53.44 112 48 112 C48 133.12 48 154.24 48 176 C42.72 176 37.44 176 32 176 C32 170.72 32 165.44 32 160 C26.72 160 21.44 160 16 160 C16 154.72 16 149.44 16 144 C10.72 144 5.44 144 0 144 C0 138.72 0 133.44 0 128 C-15.84 128 -31.68 128 -48 128 C-48 122.72 -48 117.44 -48 112 C-42.72 112 -37.44 112 -32 112 C-32 101.44 -32 90.88 -32 80 C-37.28 80 -42.56 80 -48 80 C-48 74.72 -48 69.44 -48 64 C-53.28 64 -58.56 64 -64 64 C-64 58.72 -64 53.44 -64 48 C-58.72 48 -53.44 48 -48 48 C-48 42.72 -48 37.44 -48 32 C-42.72 32 -37.44 32 -32 32 C-32 26.72 -32 21.44 -32 16 C-21.44 16 -10.88 16 0 16 C0 10.72 0 5.44 0 0 Z " fill="#4040E0" transform="translate(64,0)"/>
<path d="M0 0 C10.56 0 21.12 0 32 0 C32 10.56 32 21.12 32 32 C37.28 32 42.56 32 48 32 C48 53.12 48 74.24 48 96 C58.56 96 69.12 96 80 96 C80 64.32 80 32.64 80 0 C85.28 0 90.56 0 96 0 C96 15.84 96 31.68 96 48 C101.28 48 106.56 48 112 48 C112 32.16 112 16.32 112 0 C117.28 0 122.56 0 128 0 C128 26.4 128 52.8 128 80 C122.72 80 117.44 80 112 80 C112 90.56 112 101.12 112 112 C106.72 112 101.44 112 96 112 C96 117.28 96 122.56 96 128 C90.72 128 85.44 128 80 128 C80 133.28 80 138.56 80 144 C74.72 144 69.44 144 64 144 C64 138.72 64 133.44 64 128 C42.88 128 21.76 128 0 128 C0 122.72 0 117.44 0 112 C-10.56 112 -21.12 112 -32 112 C-32 101.44 -32 90.88 -32 80 C-26.72 80 -21.44 80 -16 80 C-16 58.88 -16 37.76 -16 16 C-10.72 16 -5.44 16 0 16 C0 10.72 0 5.44 0 0 Z " fill="#E0A080" transform="translate(128,96)"/>
<path d="M0 0 C26.4 0 52.8 0 80 0 C80 5.28 80 10.56 80 16 C90.56 16 101.12 16 112 16 C112 21.28 112 26.56 112 32 C117.28 32 122.56 32 128 32 C128 37.28 128 42.56 128 48 C112.16 48 96.32 48 80 48 C80 42.72 80 37.44 80 32 C58.88 32 37.76 32 16 32 C16 37.28 16 42.56 16 48 C21.28 48 26.56 48 32 48 C32 53.28 32 58.56 32 64 C37.28 64 42.56 64 48 64 C48 74.56 48 85.12 48 96 C37.44 96 26.88 96 16 96 C16 90.72 16 85.44 16 80 C10.72 80 5.44 80 0 80 C0 85.28 0 90.56 0 96 C-5.28 96 -10.56 96 -16 96 C-16 101.28 -16 106.56 -16 112 C-21.28 112 -26.56 112 -32 112 C-32 101.44 -32 90.88 -32 80 C-37.28 80 -42.56 80 -48 80 C-48 74.72 -48 69.44 -48 64 C-53.28 64 -58.56 64 -64 64 C-64 58.72 -64 53.44 -64 48 C-58.72 48 -53.44 48 -48 48 C-48 42.72 -48 37.44 -48 32 C-42.72 32 -37.44 32 -32 32 C-32 26.72 -32 21.44 -32 16 C-21.44 16 -10.88 16 0 16 C0 10.72 0 5.44 0 0 Z " fill="#2020A0" transform="translate(64,0)"/>
<path d="M0 0 C21.12 0 42.24 0 64 0 C64 5.28 64 10.56 64 16 C58.72 16 53.44 16 48 16 C48 26.56 48 37.12 48 48 C53.28 48 58.56 48 64 48 C64 42.72 64 37.44 64 32 C69.28 32 74.56 32 80 32 C80 37.28 80 42.56 80 48 C85.28 48 90.56 48 96 48 C96 53.28 96 58.56 96 64 C80.16 64 64.32 64 48 64 C48 69.28 48 74.56 48 80 C42.72 80 37.44 80 32 80 C32 101.12 32 122.24 32 144 C26.72 144 21.44 144 16 144 C16 138.72 16 133.44 16 128 C10.72 128 5.44 128 0 128 C0 122.72 0 117.44 0 112 C-5.28 112 -10.56 112 -16 112 C-16 106.72 -16 101.44 -16 96 C-31.84 96 -47.68 96 -64 96 C-64 90.72 -64 85.44 -64 80 C-53.44 80 -42.88 80 -32 80 C-32 74.72 -32 69.44 -32 64 C-26.72 64 -21.44 64 -16 64 C-16 58.72 -16 53.44 -16 48 C-10.72 48 -5.44 48 0 48 C0 53.28 0 58.56 0 64 C10.56 64 21.12 64 32 64 C32 53.44 32 42.88 32 32 C26.72 32 21.44 32 16 32 C16 26.72 16 21.44 16 16 C10.72 16 5.44 16 0 16 C0 10.72 0 5.44 0 0 Z " fill="#4040E0" transform="translate(80,32)"/>
<path d="M0 0 C26.4 0 52.8 0 80 0 C80 5.28 80 10.56 80 16 C90.56 16 101.12 16 112 16 C112 21.28 112 26.56 112 32 C117.28 32 122.56 32 128 32 C128 37.28 128 42.56 128 48 C112.16 48 96.32 48 80 48 C80 42.72 80 37.44 80 32 C58.88 32 37.76 32 16 32 C16 37.28 16 42.56 16 48 C5.44 48 -5.12 48 -16 48 C-16 42.72 -16 37.44 -16 32 C-10.72 32 -5.44 32 0 32 C0 21.44 0 10.88 0 0 Z " fill="#2040C0" transform="translate(64,0)"/>
<path d="M0 0 C15.84 0 31.68 0 48 0 C48 10.56 48 21.12 48 32 C42.72 32 37.44 32 32 32 C32 37.28 32 42.56 32 48 C26.72 48 21.44 48 16 48 C16 53.28 16 58.56 16 64 C26.56 64 37.12 64 48 64 C48 69.28 48 74.56 48 80 C37.44 80 26.88 80 16 80 C16 85.28 16 90.56 16 96 C10.72 96 5.44 96 0 96 C0 90.72 0 85.44 0 80 C-5.28 80 -10.56 80 -16 80 C-16 64.16 -16 48.32 -16 32 C-10.72 32 -5.44 32 0 32 C0 21.44 0 10.88 0 0 Z " fill="#2040C0" transform="translate(16,160)"/>
<path d="M0 0 C5.28 0 10.56 0 16 0 C16 15.84 16 31.68 16 48 C21.28 48 26.56 48 32 48 C32 32.16 32 16.32 32 0 C37.28 0 42.56 0 48 0 C48 26.4 48 52.8 48 80 C42.72 80 37.44 80 32 80 C32 90.56 32 101.12 32 112 C26.72 112 21.44 112 16 112 C16 101.44 16 90.88 16 80 C10.72 80 5.44 80 0 80 C0 53.6 0 27.2 0 0 Z " fill="#A0A0A0" transform="translate(208,96)"/>
<path d="M0 0 C21.12 0 42.24 0 64 0 C64 5.28 64 10.56 64 16 C58.72 16 53.44 16 48 16 C48 26.56 48 37.12 48 48 C53.28 48 58.56 48 64 48 C64 42.72 64 37.44 64 32 C69.28 32 74.56 32 80 32 C80 37.28 80 42.56 80 48 C85.28 48 90.56 48 96 48 C96 53.28 96 58.56 96 64 C74.88 64 53.76 64 32 64 C32 53.44 32 42.88 32 32 C26.72 32 21.44 32 16 32 C16 26.72 16 21.44 16 16 C10.72 16 5.44 16 0 16 C0 10.72 0 5.44 0 0 Z " fill="#4040E0" transform="translate(80,32)"/>
<path d="M0 0 C5.28 0 10.56 0 16 0 C16 5.28 16 10.56 16 16 C21.28 16 26.56 16 32 16 C32 47.68 32 79.36 32 112 C26.72 112 21.44 112 16 112 C16 96.16 16 80.32 16 64 C10.72 64 5.44 64 0 64 C0 58.72 0 53.44 0 48 C-5.28 48 -10.56 48 -16 48 C-16 42.72 -16 37.44 -16 32 C-10.72 32 -5.44 32 0 32 C0 21.44 0 10.88 0 0 Z " fill="#2020A0" transform="translate(208,32)"/>
<path d="M0 0 C42.24 0 84.48 0 128 0 C128 5.28 128 10.56 128 16 C85.76 16 43.52 16 0 16 C0 10.72 0 5.44 0 0 Z " fill="#E0E0E0" transform="translate(64,240)"/>
<path d="M0 0 C15.84 0 31.68 0 48 0 C48 10.56 48 21.12 48 32 C42.72 32 37.44 32 32 32 C32 37.28 32 42.56 32 48 C21.44 48 10.88 48 0 48 C0 32.16 0 16.32 0 0 Z " fill="#2040C0" transform="translate(16,160)"/>
<path d="M0 0 C10.56 0 21.12 0 32 0 C32 10.56 32 21.12 32 32 C21.44 32 10.88 32 0 32 C0 47.84 0 63.68 0 80 C-5.28 80 -10.56 80 -16 80 C-16 58.88 -16 37.76 -16 16 C-10.72 16 -5.44 16 0 16 C0 10.72 0 5.44 0 0 Z " fill="#E0E0E0" transform="translate(128,96)"/>
<path d="M0 0 C10.56 0 21.12 0 32 0 C32 5.28 32 10.56 32 16 C53.12 16 74.24 16 96 16 C96 21.28 96 26.56 96 32 C69.6 32 43.2 32 16 32 C16 26.72 16 21.44 16 16 C10.72 16 5.44 16 0 16 C0 10.72 0 5.44 0 0 Z " fill="#800000" transform="translate(96,208)"/>
<path d="M0 0 C5.28 0 10.56 0 16 0 C16 15.84 16 31.68 16 48 C10.72 48 5.44 48 0 48 C0 53.28 0 58.56 0 64 C-5.28 64 -10.56 64 -16 64 C-16 48.16 -16 32.32 -16 16 C-10.72 16 -5.44 16 0 16 C0 10.72 0 5.44 0 0 Z " fill="#A06040" transform="translate(208,176)"/>
<path d="M0 0 C10.56 0 21.12 0 32 0 C32 15.84 32 31.68 32 48 C21.44 48 10.88 48 0 48 C0 32.16 0 16.32 0 0 Z " fill="#080000" transform="translate(128,128)"/>
<path d="M0 0 C5.28 0 10.56 0 16 0 C16 21.12 16 42.24 16 64 C5.44 64 -5.12 64 -16 64 C-16 58.72 -16 53.44 -16 48 C-10.72 48 -5.44 48 0 48 C0 32.16 0 16.32 0 0 Z " fill="#E0E0E0" transform="translate(160,128)"/>
<path d="M0 0 C21.12 0 42.24 0 64 0 C64 10.56 64 21.12 64 32 C58.72 32 53.44 32 48 32 C48 26.72 48 21.44 48 16 C32.16 16 16.32 16 0 16 C0 10.72 0 5.44 0 0 Z " fill="#2040C0" transform="translate(16,112)"/>
<path d="M0 0 C5.28 0 10.56 0 16 0 C16 26.4 16 52.8 16 80 C10.72 80 5.44 80 0 80 C0 53.6 0 27.2 0 0 Z " fill="#E0E0E0" transform="translate(240,96)"/>
<path d="M0 0 C10.56 0 21.12 0 32 0 C32 5.28 32 10.56 32 16 C37.28 16 42.56 16 48 16 C48 21.28 48 26.56 48 32 C42.72 32 37.44 32 32 32 C32 37.28 32 42.56 32 48 C26.72 48 21.44 48 16 48 C16 37.44 16 26.88 16 16 C10.72 16 5.44 16 0 16 C0 10.72 0 5.44 0 0 Z " fill="#E0E0E0" transform="translate(16,64)"/>
<path d="M0 0 C5.28 0 10.56 0 16 0 C16 5.28 16 10.56 16 16 C21.28 16 26.56 16 32 16 C32 26.56 32 37.12 32 48 C21.44 48 10.88 48 0 48 C0 32.16 0 16.32 0 0 Z " fill="#A06040" transform="translate(80,48)"/>
<path d="M0 0 C10.56 0 21.12 0 32 0 C32 5.28 32 10.56 32 16 C37.28 16 42.56 16 48 16 C48 21.28 48 26.56 48 32 C32.16 32 16.32 32 0 32 C0 21.44 0 10.88 0 0 Z " fill="#2040C0" transform="translate(144,16)"/>
<path d="M0 0 C26.4 0 52.8 0 80 0 C80 5.28 80 10.56 80 16 C53.6 16 27.2 16 0 16 C0 10.72 0 5.44 0 0 Z " fill="#E0E0E0" transform="translate(64,0)"/>
<path d="M0 0 C15.84 0 31.68 0 48 0 C48 5.28 48 10.56 48 16 C37.44 16 26.88 16 16 16 C16 21.28 16 26.56 16 32 C10.72 32 5.44 32 0 32 C0 21.44 0 10.88 0 0 Z " fill="#E0E0E0" transform="translate(16,160)"/>
<path d="M0 0 C5.28 0 10.56 0 16 0 C16 15.84 16 31.68 16 48 C10.72 48 5.44 48 0 48 C0 42.72 0 37.44 0 32 C-5.28 32 -10.56 32 -16 32 C-16 26.72 -16 21.44 -16 16 C-10.72 16 -5.44 16 0 16 C0 10.72 0 5.44 0 0 Z " fill="#6060E0" transform="translate(96,128)"/>
<path d="M0 0 C5.28 0 10.56 0 16 0 C16 5.28 16 10.56 16 16 C21.28 16 26.56 16 32 16 C32 21.28 32 26.56 32 32 C16.16 32 0.32 32 -16 32 C-16 26.72 -16 21.44 -16 16 C-10.72 16 -5.44 16 0 16 C0 10.72 0 5.44 0 0 Z " fill="#6060E0" transform="translate(144,64)"/>
<path d="M0 0 C5.28 0 10.56 0 16 0 C16 15.84 16 31.68 16 48 C10.72 48 5.44 48 0 48 C0 32.16 0 16.32 0 0 Z " fill="#E0E0E0" transform="translate(0,192)"/>
<path d="M0 0 C5.28 0 10.56 0 16 0 C16 5.28 16 10.56 16 16 C21.28 16 26.56 16 32 16 C32 21.28 32 26.56 32 32 C21.44 32 10.88 32 0 32 C0 21.44 0 10.88 0 0 Z " fill="#A06040" transform="translate(96,176)"/>
<path d="M0 0 C5.28 0 10.56 0 16 0 C16 15.84 16 31.68 16 48 C10.72 48 5.44 48 0 48 C0 32.16 0 16.32 0 0 Z " fill="#E0E0E0" transform="translate(112,128)"/>
<path d="M0 0 C5.28 0 10.56 0 16 0 C16 15.84 16 31.68 16 48 C10.72 48 5.44 48 0 48 C0 32.16 0 16.32 0 0 Z " fill="#2020A0" transform="translate(224,96)"/>
<path d="M0 0 C5.28 0 10.56 0 16 0 C16 15.84 16 31.68 16 48 C10.72 48 5.44 48 0 48 C0 32.16 0 16.32 0 0 Z " fill="#E0E0E0" transform="translate(224,48)"/>
<path d="M0 0 C10.56 0 21.12 0 32 0 C32 5.28 32 10.56 32 16 C21.44 16 10.88 16 0 16 C0 10.72 0 5.44 0 0 Z " fill="#E0E0E0" transform="translate(32,224)"/>
<path d="M0 0 C10.56 0 21.12 0 32 0 C32 5.28 32 10.56 32 16 C21.44 16 10.88 16 0 16 C0 10.72 0 5.44 0 0 Z " fill="#A06040" transform="translate(128,208)"/>
<path d="M0 0 C5.28 0 10.56 0 16 0 C16 10.56 16 21.12 16 32 C10.72 32 5.44 32 0 32 C0 21.44 0 10.88 0 0 Z " fill="#E0E0E0" transform="translate(224,176)"/>
<path d="M0 0 C10.56 0 21.12 0 32 0 C32 5.28 32 10.56 32 16 C21.44 16 10.88 16 0 16 C0 10.72 0 5.44 0 0 Z " fill="#080000" transform="translate(176,176)"/>
<path d="M0 0 C5.28 0 10.56 0 16 0 C16 10.56 16 21.12 16 32 C10.72 32 5.44 32 0 32 C0 21.44 0 10.88 0 0 Z " fill="#080000" transform="translate(80,176)"/>
<path d="M0 0 C5.28 0 10.56 0 16 0 C16 10.56 16 21.12 16 32 C10.72 32 5.44 32 0 32 C0 21.44 0 10.88 0 0 Z " fill="#404040" transform="translate(144,144)"/>
<path d="M0 0 C5.28 0 10.56 0 16 0 C16 10.56 16 21.12 16 32 C10.72 32 5.44 32 0 32 C0 21.44 0 10.88 0 0 Z " fill="#6060E0" transform="translate(224,144)"/>
<path d="M0 0 C5.28 0 10.56 0 16 0 C16 10.56 16 21.12 16 32 C10.72 32 5.44 32 0 32 C0 21.44 0 10.88 0 0 Z " fill="#080000" transform="translate(192,128)"/>
<path d="M0 0 C5.28 0 10.56 0 16 0 C16 10.56 16 21.12 16 32 C10.72 32 5.44 32 0 32 C0 21.44 0 10.88 0 0 Z " fill="#E0E0E0" transform="translate(0,128)"/>
<path d="M0 0 C5.28 0 10.56 0 16 0 C16 10.56 16 21.12 16 32 C10.72 32 5.44 32 0 32 C0 21.44 0 10.88 0 0 Z " fill="#808080" transform="translate(208,96)"/>
<path d="M0 0 C10.56 0 21.12 0 32 0 C32 5.28 32 10.56 32 16 C21.44 16 10.88 16 0 16 C0 10.72 0 5.44 0 0 Z " fill="#A0A0A0" transform="translate(128,96)"/>
<path d="M0 0 C5.28 0 10.56 0 16 0 C16 10.56 16 21.12 16 32 C10.72 32 5.44 32 0 32 C0 21.44 0 10.88 0 0 Z " fill="#2020A0" transform="translate(112,64)"/>
<path d="M0 0 C10.56 0 21.12 0 32 0 C32 5.28 32 10.56 32 16 C21.44 16 10.88 16 0 16 C0 10.72 0 5.44 0 0 Z " fill="#E0E0E0" transform="translate(144,16)"/>
<path d="M0 0 C10.56 0 21.12 0 32 0 C32 5.28 32 10.56 32 16 C21.44 16 10.88 16 0 16 C0 10.72 0 5.44 0 0 Z " fill="#E0E0E0" transform="translate(32,16)"/>
<path d="M0 0 C5.28 0 10.56 0 16 0 C16 5.28 16 10.56 16 16 C10.72 16 5.44 16 0 16 C0 10.72 0 5.44 0 0 Z " fill="#E0E0E0" transform="translate(16,240)"/>
<path d="M0 0 C5.28 0 10.56 0 16 0 C16 5.28 16 10.56 16 16 C10.72 16 5.44 16 0 16 C0 10.72 0 5.44 0 0 Z " fill="#E0E0E0" transform="translate(192,224)"/>
<path d="M0 0 C5.28 0 10.56 0 16 0 C16 5.28 16 10.56 16 16 C10.72 16 5.44 16 0 16 C0 10.72 0 5.44 0 0 Z " fill="#E0E0E0" transform="translate(208,208)"/>
<path d="M0 0 C5.28 0 10.56 0 16 0 C16 5.28 16 10.56 16 16 C10.72 16 5.44 16 0 16 C0 10.72 0 5.44 0 0 Z " fill="#800000" transform="translate(192,208)"/>
<path d="M0 0 C5.28 0 10.56 0 16 0 C16 5.28 16 10.56 16 16 C10.72 16 5.44 16 0 16 C0 10.72 0 5.44 0 0 Z " fill="#A06040" transform="translate(176,208)"/>
<path d="M0 0 C5.28 0 10.56 0 16 0 C16 5.28 16 10.56 16 16 C10.72 16 5.44 16 0 16 C0 10.72 0 5.44 0 0 Z " fill="#080000" transform="translate(96,208)"/>
<path d="M0 0 C5.28 0 10.56 0 16 0 C16 5.28 16 10.56 16 16 C10.72 16 5.44 16 0 16 C0 10.72 0 5.44 0 0 Z " fill="#6060E0" transform="translate(16,192)"/>
<path d="M0 0 C5.28 0 10.56 0 16 0 C16 5.28 16 10.56 16 16 C10.72 16 5.44 16 0 16 C0 10.72 0 5.44 0 0 Z " fill="#404040" transform="translate(208,176)"/>
<path d="M0 0 C5.28 0 10.56 0 16 0 C16 5.28 16 10.56 16 16 C10.72 16 5.44 16 0 16 C0 10.72 0 5.44 0 0 Z " fill="#6060E0" transform="translate(32,176)"/>
<path d="M0 0 C5.28 0 10.56 0 16 0 C16 5.28 16 10.56 16 16 C10.72 16 5.44 16 0 16 C0 10.72 0 5.44 0 0 Z " fill="#404040" transform="translate(192,160)"/>
<path d="M0 0 C5.28 0 10.56 0 16 0 C16 5.28 16 10.56 16 16 C10.72 16 5.44 16 0 16 C0 10.72 0 5.44 0 0 Z " fill="#6060E0" transform="translate(176,160)"/>
<path d="M0 0 C5.28 0 10.56 0 16 0 C16 5.28 16 10.56 16 16 C10.72 16 5.44 16 0 16 C0 10.72 0 5.44 0 0 Z " fill="#2040C0" transform="translate(176,144)"/>
<path d="M0 0 C5.28 0 10.56 0 16 0 C16 5.28 16 10.56 16 16 C10.72 16 5.44 16 0 16 C0 10.72 0 5.44 0 0 Z " fill="#808080" transform="translate(144,144)"/>
<path d="M0 0 C5.28 0 10.56 0 16 0 C16 5.28 16 10.56 16 16 C10.72 16 5.44 16 0 16 C0 10.72 0 5.44 0 0 Z " fill="#404040" transform="translate(144,128)"/>
<path d="M0 0 C5.28 0 10.56 0 16 0 C16 5.28 16 10.56 16 16 C10.72 16 5.44 16 0 16 C0 10.72 0 5.44 0 0 Z " fill="#2040C0" transform="translate(16,128)"/>
<path d="M0 0 C5.28 0 10.56 0 16 0 C16 5.28 16 10.56 16 16 C10.72 16 5.44 16 0 16 C0 10.72 0 5.44 0 0 Z " fill="#6060E0" transform="translate(160,112)"/>
<path d="M0 0 C5.28 0 10.56 0 16 0 C16 5.28 16 10.56 16 16 C10.72 16 5.44 16 0 16 C0 10.72 0 5.44 0 0 Z " fill="#A0A0A0" transform="translate(112,112)"/>
<path d="M0 0 C5.28 0 10.56 0 16 0 C16 5.28 16 10.56 16 16 C10.72 16 5.44 16 0 16 C0 10.72 0 5.44 0 0 Z " fill="#E0E0E0" transform="translate(16,112)"/>
<path d="M0 0 C5.28 0 10.56 0 16 0 C16 5.28 16 10.56 16 16 C10.72 16 5.44 16 0 16 C0 10.72 0 5.44 0 0 Z " fill="#2040C0" transform="translate(64,80)"/>
<path d="M0 0 C5.28 0 10.56 0 16 0 C16 5.28 16 10.56 16 16 C10.72 16 5.44 16 0 16 C0 10.72 0 5.44 0 0 Z " fill="#2040C0" transform="translate(192,64)"/>
<path d="M0 0 C5.28 0 10.56 0 16 0 C16 5.28 16 10.56 16 16 C10.72 16 5.44 16 0 16 C0 10.72 0 5.44 0 0 Z " fill="#4040E0" transform="translate(128,64)"/>
<path d="M0 0 C5.28 0 10.56 0 16 0 C16 5.28 16 10.56 16 16 C10.72 16 5.44 16 0 16 C0 10.72 0 5.44 0 0 Z " fill="#E0A080" transform="translate(96,64)"/>
<path d="M0 0 C5.28 0 10.56 0 16 0 C16 5.28 16 10.56 16 16 C10.72 16 5.44 16 0 16 C0 10.72 0 5.44 0 0 Z " fill="#2040C0" transform="translate(48,64)"/>
<path d="M0 0 C5.28 0 10.56 0 16 0 C16 5.28 16 10.56 16 16 C10.72 16 5.44 16 0 16 C0 10.72 0 5.44 0 0 Z " fill="#E0E0E0" transform="translate(192,48)"/>
<path d="M0 0 C5.28 0 10.56 0 16 0 C16 5.28 16 10.56 16 16 C10.72 16 5.44 16 0 16 C0 10.72 0 5.44 0 0 Z " fill="#2040C0" transform="translate(176,48)"/>
<path d="M0 0 C5.28 0 10.56 0 16 0 C16 5.28 16 10.56 16 16 C10.72 16 5.44 16 0 16 C0 10.72 0 5.44 0 0 Z " fill="#6060E0" transform="translate(128,48)"/>
<path d="M0 0 C5.28 0 10.56 0 16 0 C16 5.28 16 10.56 16 16 C10.72 16 5.44 16 0 16 C0 10.72 0 5.44 0 0 Z " fill="#2020A0" transform="translate(96,48)"/>
<path d="M0 0 C5.28 0 10.56 0 16 0 C16 5.28 16 10.56 16 16 C10.72 16 5.44 16 0 16 C0 10.72 0 5.44 0 0 Z " fill="#E0E0E0" transform="translate(0,48)"/>
<path d="M0 0 C5.28 0 10.56 0 16 0 C16 5.28 16 10.56 16 16 C10.72 16 5.44 16 0 16 C0 10.72 0 5.44 0 0 Z " fill="#E0E0E0" transform="translate(208,32)"/>
<path d="M0 0 C5.28 0 10.56 0 16 0 C16 5.28 16 10.56 16 16 C10.72 16 5.44 16 0 16 C0 10.72 0 5.44 0 0 Z " fill="#E0E0E0" transform="translate(176,32)"/>
<path d="M0 0 C5.28 0 10.56 0 16 0 C16 5.28 16 10.56 16 16 C10.72 16 5.44 16 0 16 C0 10.72 0 5.44 0 0 Z " fill="#E0E0E0" transform="translate(16,32)"/>
</svg>
